HIERARCHY
ROOT Hips
{
	OFFSET -3.958830 18.904000 13.208200
	CHANNELS 6 Xposition Yposition Zposition Zrotation Yrotation Xrotation 
	JOINT LHipJoint
	{
		OFFSET 0.000000 0.000000 0.000000
		CHANNELS 3 Zrotation Yrotation Xrotation
		JOINT LeftUpLeg
		{
			OFFSET 1.800000 -1.400000 0.085000
			CHANNELS 3 Zrotation Yrotation Xrotation
			JOINT LeftLeg
			{
				OFFSET 2.215000 -6.000000 0.000000
				CHANNELS 3 Zrotation Yrotation Xrotation
				JOINT LeftFoot
				{
					OFFSET 2.500000 -6.900000 0.000000
					CHANNELS 3 Zrotation Yrotation Xrotation
					JOINT LeftToeBase
					{
						OFFSET 0.200000 -0.500000 1.950000
						CHANNELS 3 Zrotation Yrotation Xrotation
						End Site
						{
							OFFSET 0.000000 0.000000 0.000000
						}
					}
				}
			}
		}
	}
	JOINT RHipJoint
	{
		OFFSET 0.000000 0.000000 0.000000
		CHANNELS 3 Zrotation Yrotation Xrotation
		JOINT RightUpLeg
		{
			OFFSET -1.800000 -1.400000 0.085000
			CHANNELS 3 Zrotation Yrotation Xrotation
			JOINT RightLeg
			{
				OFFSET -2.215000 -6.000000 0.000000
				CHANNELS 3 Zrotation Yrotation Xrotation
				JOINT RightFoot
				{
					OFFSET -2.500000 -6.900000 0.000000
					CHANNELS 3 Zrotation Yrotation Xrotation
					JOINT RightToeBase
					{
						OFFSET -0.200000 -0.500000 1.950000
						CHANNELS 3 Zrotation Yrotation Xrotation
						End Site
						{
							OFFSET 0.000000 0.000000 0.000000
						}
					}
				}
			}
		}
	}
	JOINT LowerBack
	{
		OFFSET 0.000000 0.000000 0.000000
		CHANNELS 3 Zrotation Yrotation Xrotation
		JOINT Spine
		{
			OFFSET -0.087000 1.940000 -0.288900
			CHANNELS 3 Zrotation Yrotation Xrotation
			JOINT Spine1
			{
				OFFSET 0.000000 1.950000 0.060000
				CHANNELS 3 Zrotation Yrotation Xrotation
				JOINT Neck
				{
					OFFSET 0.000000 0.000000 0.000000
					CHANNELS 3 Zrotation Yrotation Xrotation
					JOINT Neck1
					{
						OFFSET 0.000000 1.600000 0.340000
						CHANNELS 3 Zrotation Yrotation Xrotation
						JOINT Head
						{
							OFFSET 0.000000 1.667000 -0.240000
							CHANNELS 3 Zrotation Yrotation Xrotation
							End Site
							{
								OFFSET 0.000000 0.000000 0.000000
							}
						}
					}
				}
				JOINT LeftShoulder
				{
					OFFSET 0.000000 0.000000 0.000000
					CHANNELS 3 Zrotation Yrotation Xrotation
					JOINT LeftArm
					{
						OFFSET 2.700000 1.550000 -0.730000
						CHANNELS 3 Zrotation Yrotation Xrotation
						JOINT LeftForeArm
						{
							OFFSET 5.450000 0.000000 0.000000
							CHANNELS 3 Zrotation Yrotation Xrotation
							JOINT LeftHand
							{
								OFFSET 3.450000 0.000000 0.000000
								CHANNELS 3 Zrotation Yrotation Xrotation
								JOINT LeftHandIndex1
								{
									OFFSET 0.750000 0.000000 0.000000
									CHANNELS 3 Zrotation Yrotation Xrotation
									End Site
									{
										OFFSET 0.000000 0.000000 0.000000
									}
								}
							}
						}
					}
				}
				JOINT RightShoulder
				{
					OFFSET 0.000000 0.000000 0.000000
					CHANNELS 3 Zrotation Yrotation Xrotation
					JOINT RightArm
					{
						OFFSET -2.700000 1.550000 -0.730000
						CHANNELS 3 Zrotation Yrotation Xrotation
						JOINT RightForeArm
						{
							OFFSET -5.450000 0.000000 0.000000
							CHANNELS 3 Zrotation Yrotation Xrotation
							JOINT RightHand
							{
								OFFSET -3.450000 0.000000 0.000000
								CHANNELS 3 Zrotation Yrotation Xrotation
								JOINT RightHandIndex1
								{
									OFFSET -0.750000 0.000000 0.000000
									CHANNELS 3 Zrotation Yrotation Xrotation
									End Site
									{
										OFFSET 0.000000 0.000000 0.000000
									}
								}
							}
						}
					}
				}
			}
		}
	}
}
MOTION
Frames: 14
Frame Time: 0.016667
-2.205190 17.310340 1.302720 -4.859954 -0.355104 -5.681754 -15.788524 11.394399 5.666682 33.031804 -1.779280 -35.417642 -17.796631 18.021819 38.756164 -0.238921 10.691671 0.483772 -0.299900 -0.335410 -0.313110 18.068682 -9.197032 2.538658 -14.378483 6.839049 -28.092728 5.538799 -13.712809 54.271909 -1.230131 -8.651045 1.259792 -0.143320 0.622550 0.199690 -2.480646 -2.261411 -9.395097 1.186577 5.652293 34.051134 9.028332 6.679604 12.024359 -2.803654 2.231772 -16.680014 3.594999 -1.392008 50.304835 -0.436780 4.592300 -19.264410 -7.556378 -28.173562 8.812883 -44.095126 -9.440412 -20.563842 38.968884 -64.531380 -32.117771 -3.556276 1.807568 1.013960 0.170580 0.135450 -0.070300 13.814195 31.159311 12.436585 60.575508 12.089161 -20.566063 -11.412205 41.691624 -8.620809 1.548112 -0.717531 -0.593490 0.740040 0.706710 -0.141000 
-2.296980 17.259680 1.317410 -5.034014 0.067046 -6.644949 -15.768647 11.369697 5.596460 33.536714 -1.590478 -35.046180 -16.792132 18.048738 39.681762 -0.247817 10.718163 0.448932 -0.216850 -0.228420 -0.286930 18.090262 -9.180975 2.597816 -14.518999 7.046386 -27.570149 6.808043 -14.755940 55.443160 -1.357659 -9.022073 1.135167 -0.081870 0.594510 0.197580 -2.541411 -2.202425 -9.419203 0.842389 5.763622 33.781251 9.136170 6.646256 13.732917 -3.451740 1.347962 -17.254222 1.704435 -0.941613 51.762294 1.049390 3.859040 -19.971680 -6.722881 -29.773489 8.761637 -41.599576 -10.120225 -19.844199 35.152041 -58.928779 -26.844024 -3.512911 1.964797 1.020980 0.136240 0.165230 -0.046400 14.489272 33.162719 13.119343 58.768968 12.570630 -20.024845 -12.844988 39.296988 -8.596457 1.537324 -0.762664 -0.563610 0.748930 0.671260 -0.124250 
-2.386530 17.222950 1.338700 -5.342246 0.529487 -7.536610 -15.734751 11.363142 5.495997 33.865982 -1.303467 -34.742074 -15.294150 17.940005 40.784649 -0.251170 10.718193 0.439456 -0.173300 -0.163620 -0.285140 18.122201 -9.195952 2.649541 -14.457480 7.225056 -26.855163 8.104937 -15.730304 56.184061 -1.452818 -9.325116 1.040610 -0.038910 0.588570 0.177780 -2.636391 -2.100001 -9.418463 0.669076 5.718042 33.456282 8.707380 6.704802 14.620552 -3.905035 0.826231 -17.326798 0.410486 -0.402772 52.802136 2.609720 3.441300 -19.899630 -5.731555 -30.199659 8.621558 -39.485634 -10.968301 -18.332536 32.286841 -53.597304 -22.559992 -3.505230 2.070287 1.011360 0.115810 0.168930 -0.027500 14.484087 33.710878 13.214024 57.976631 13.179594 -18.945801 -13.663771 37.049618 -8.285487 1.557453 -0.786035 -0.553500 0.764200 0.649190 -0.107480 
-2.474710 17.206890 1.361700 -5.421213 0.844191 -8.502748 -15.725711 11.472640 5.333608 33.670703 -1.024411 -34.217605 -13.504021 17.556546 41.654334 -0.313669 10.680125 0.438276 -0.179160 -0.185160 -0.290940 18.117117 -9.214026 2.679063 -14.415016 7.380302 -25.844109 9.236070 -16.508725 56.569814 -1.507159 -9.554802 0.965739 -0.029060 0.609090 0.174920 -2.640076 -2.157473 -9.360980 -0.210248 5.924196 33.086676 8.447117 6.805036 15.304360 -4.100067 0.415294 -17.311883 -0.699224 0.258826 53.874133 3.342230 3.291290 -19.593000 -4.546207 -30.162432 8.606221 -37.971985 -11.617541 -16.537842 31.130964 -48.063887 -19.540959 -3.557384 2.109373 1.028140 0.119940 0.153210 -0.037580 13.745100 33.892105 13.171362 57.418072 13.814936 -17.800920 -14.131737 35.257130 -7.895992 1.562705 -0.766587 -0.579730 0.785150 0.675120 -0.115130 
-2.559970 17.214060 1.387490 -5.692809 1.062747 -9.731041 -15.682313 11.665397 5.089289 33.253668 -0.623055 -33.187087 -11.184701 16.695256 42.016717 -0.408469 10.479640 0.497324 -0.202900 -0.223190 -0.315960 18.122103 -9.321823 2.699768 -14.022257 7.519026 -24.185078 10.318691 -17.067322 56.424142 -1.541065 -9.680587 0.931549 -0.028560 0.640350 0.162640 -2.706608 -2.163300 -9.267892 -0.590030 5.814680 33.017255 7.516936 6.901118 15.838848 -4.125698 -0.004469 -17.345823 -1.843415 1.227254 55.089184 4.052790 3.383950 -19.074190 -3.654398 -30.068065 8.785511 -35.997049 -11.591999 -14.827749 30.346695 -42.997623 -17.098879 -3.617581 2.125757 1.049090 0.126590 0.129980 -0.044370 12.895967 33.946293 13.112807 57.012898 14.369246 -16.783130 -15.096994 33.591319 -7.715865 1.563990 -0.736288 -0.618150 0.815710 0.710740 -0.122870 
-2.643410 17.243660 1.417470 -6.296062 1.004233 -10.951558 -15.617458 11.866366 4.823747 33.113477 0.088640 -31.836311 -8.746955 15.676294 41.845150 -0.471187 10.204199 0.591542 -0.232720 -0.263950 -0.345210 18.145655 -9.474769 2.710115 -13.102450 7.701812 -22.064652 11.404069 -17.267264 55.401548 -1.537461 -9.638503 0.958907 -0.045210 0.677950 0.166940 -2.831434 -2.075353 -9.164628 -0.299786 5.456237 32.874885 5.980353 7.024022 16.252290 -3.923152 -0.387625 -17.347702 -2.935157 2.473365 56.285689 4.611440 3.712040 -18.005200 -2.758235 -29.736759 9.157069 -34.007510 -11.262136 -13.094547 29.624447 -38.387076 -14.993538 -3.692297 2.147221 1.045270 0.145740 0.108660 -0.046880 11.513565 33.707351 12.955289 56.690466 15.082875 -15.650494 -15.874443 32.253976 -7.560703 1.579544 -0.711440 -0.632530 0.827030 0.738470 -0.115770 
-2.711490 17.286750 1.445280 -7.228977 1.097013 -12.208705 -15.515785 12.075859 4.495307 32.753504 0.781214 -30.454001 -5.800696 14.257905 41.293163 -0.538177 9.785318 0.756451 -0.268270 -0.304750 -0.376910 18.197199 -9.698336 2.729084 -12.003890 7.699165 -19.660867 12.552684 -17.373464 53.849956 -1.508224 -9.530612 1.028980 -0.062030 0.731230 0.153140 -3.047600 -1.869638 -9.029413 0.787438 4.612355 32.792240 3.809240 6.904024 16.757614 -3.530502 -0.605508 -17.133867 -3.478299 3.731390 56.691071 4.878280 4.261180 -16.425640 -1.575243 -29.098240 9.582025 -32.159056 -10.662725 -11.666131 29.024806 -34.923501 -13.423582 -3.766344 2.147412 1.019700 0.180330 0.068460 -0.040740 9.369535 32.968829 12.609345 56.206740 16.142561 -14.391497 -16.436169 31.286051 -7.476456 1.594168 -0.688432 -0.654120 0.849540 0.754830 -0.104770 
-2.777860 17.341340 1.474490 -8.094170 1.192892 -13.405080 -15.412261 12.271409 4.168939 32.438167 1.464242 -28.855443 -3.339571 12.909943 40.035645 -0.588760 9.341632 0.943164 -0.311540 -0.368460 -0.409570 18.251029 -9.953089 2.733359 -10.846860 7.522661 -17.110174 13.362856 -17.158444 51.941730 -1.454425 -9.336751 1.123038 -0.093230 0.787230 0.151710 -3.268321 -1.605505 -8.877048 1.855350 3.848824 32.571710 1.469279 6.825115 17.405002 -2.958169 -0.697380 -17.058112 -3.603201 4.776080 56.809190 4.830310 4.795260 -14.284600 -0.040462 -28.470862 10.144511 -30.223216 -9.477040 -10.647960 28.278485 -32.663277 -12.221118 -3.828540 2.160099 0.991330 0.219680 0.025180 -0.029270 6.541876 32.162799 12.444898 55.577295 16.894846 -13.212143 -16.655365 30.718625 -7.372261 1.604372 -0.680859 -0.673810 0.856070 0.769930 -0.095150 
-2.846610 17.394820 1.504330 -8.488273 1.296404 -14.078481 -15.346525 12.447731 3.874740 31.853419 2.016321 -27.608099 -1.348331 11.809475 38.661024 -0.630235 8.933152 1.107042 -0.382180 -0.459510 -0.455020 18.277622 -10.149737 2.748441 -10.156580 7.315181 -15.222348 14.106267 -16.905687 50.055061 -1.372776 -9.148751 1.203842 -0.141490 0.840730 0.152750 -3.395726 -1.425619 -8.723338 1.995025 3.518570 31.896250 -0.585097 6.812807 17.655708 -2.227848 -0.674876 -16.763544 -3.390961 5.790939 56.488823 4.471340 5.545300 -12.086860 1.534184 -27.028596 10.393771 -28.464375 -8.453323 -9.644155 27.547635 -31.237551 -11.235308 -3.904827 2.166450 0.952670 0.266520 -0.030600 -0.043900 3.398730 30.548156 12.133200 54.401116 17.636680 -11.394494 -15.333155 30.084446 -6.660849 1.629229 -0.657006 -0.691880 0.842320 0.806950 -0.089970 
-2.907080 17.457620 1.529790 -8.931538 1.556056 -14.841665 -15.282397 12.638671 3.579763 31.351457 2.503493 -26.092917 0.382111 10.679925 36.661018 -0.703243 8.463489 1.285752 -0.425630 -0.532680 -0.464280 18.297995 -10.335222 2.774873 -9.551606 7.001754 -13.155075 15.084662 -16.730950 47.894992 -1.318003 -8.941815 1.275024 -0.174450 0.855430 0.153070 -3.513578 -1.294645 -8.575252 2.362743 3.065579 31.600477 -2.773810 6.773523 17.924319 -1.260133 -0.835277 -16.652591 -3.754176 6.792324 56.504456 3.756750 6.252140 -11.124260 2.693288 -25.524080 10.434896 -26.440683 -7.522953 -8.918143 27.578573 -30.072018 -10.670475 -3.950930 2.157879 0.957050 0.280710 -0.054360 -0.059820 0.243959 28.942072 12.074132 52.386106 17.644844 -10.160867 -13.395192 30.535852 -5.943677 1.634250 -0.621267 -0.717520 0.832980 0.830760 -0.105470 
-2.957170 17.518610 1.560210 -9.238197 2.034150 -15.194004 -15.211976 12.780530 3.331963 30.712621 2.792979 -24.956831 1.811461 9.705421 34.759104 -0.762897 8.028106 1.457731 -0.479060 -0.612390 -0.497820 18.326880 -10.512084 2.805310 -9.274234 6.554068 -11.444119 16.149026 -16.605423 45.550005 -1.252322 -8.738398 1.358846 -0.215430 0.881020 0.149970 -3.656274 -1.142314 -8.451298 2.956435 2.461749 30.933192 -5.264318 6.627203 18.167306 -0.223880 -1.078796 -16.836543 -4.427226 7.881441 56.777572 3.216160 6.817450 -9.620940 3.757340 -24.168866 10.474279 -24.401953 -6.522657 -8.339838 27.735165 -29.295510 -10.259553 -3.994093 2.152031 0.955510 0.302630 -0.088360 -0.069950 -2.916710 27.413611 12.254856 49.935880 17.021854 -9.400885 -11.214257 31.907340 -5.284706 1.617220 -0.592945 -0.741600 0.821780 0.860280 -0.114210 
-3.008490 17.592130 1.577310 -9.028777 2.580818 -15.660982 -15.157095 12.975705 3.088300 29.688564 2.943514 -23.595092 2.648526 8.869685 32.594753 -0.792693 7.529482 1.651426 -0.466770 -0.609500 -0.476350 18.327466 -10.686949 2.817107 -9.424021 6.023737 -9.708057 16.873463 -16.249689 43.169280 -1.211953 -8.471181 1.453667 -0.233640 0.858180 0.150430 -3.737449 -1.111554 -8.304260 2.816618 2.025333 30.756675 -7.444884 6.547822 18.491664 0.705520 -1.559716 -17.156876 -5.892075 9.130135 57.309965 2.966390 7.269270 -9.514350 4.793123 -22.570078 10.396610 -22.452053 -5.614302 -7.710828 27.945730 -27.848811 -9.694474 -3.991074 2.165266 0.964840 0.281950 -0.070620 -0.062810 -5.815518 25.977724 12.528158 46.147522 15.595954 -9.377202 -8.383756 34.586940 -4.532205 1.599118 -0.585546 -0.725240 0.805010 0.836170 -0.113660 
-3.046010 17.662550 1.584480 -8.826542 2.752246 -16.226319 -15.066112 13.121602 2.855343 28.824181 3.096172 -21.817642 2.998139 8.252718 30.376819 -0.826556 7.109358 1.823219 -0.480890 -0.632400 -0.484310 18.365599 -10.897768 2.827890 -9.458829 5.584405 -8.146293 16.906416 -15.689282 41.300033 -1.151040 -8.226964 1.537853 -0.247570 0.855530 0.136040 -3.918955 -0.956789 -8.154566 3.451531 1.204421 30.932845 -10.236304 6.413494 18.849213 1.644542 -2.415570 -17.433561 -8.222187 10.731648 56.773412 2.916220 7.452780 -9.045690 5.602617 -20.718995 10.123560 -20.552531 -4.588116 -7.331587 28.439733 -26.976546 -9.405364 -3.997879 2.169654 0.964770 0.270140 -0.077850 -0.062290 -8.491398 24.514091 12.806624 41.395612 13.257346 -10.191418 -4.812049 38.801175 -3.588068 1.549713 -0.611247 -0.732400 0.801150 0.834070 -0.111390 
-3.070640 17.733720 1.585990 -8.677189 2.498468 -16.619274 -14.948396 13.193795 2.666329 28.137157 3.187748 -20.065910 2.984607 7.818413 28.414440 -0.855432 6.758438 1.957182 -0.463700 -0.625660 -0.479480 18.438973 -11.106941 2.845578 -9.374895 5.266461 -7.041415 16.655609 -15.091051 39.764934 -1.111771 -7.994361 1.606395 -0.250160 0.822100 0.134580 -4.181745 -0.698707 -8.020451 4.769476 -0.077037 31.253877 -13.624458 5.943555 18.681831 2.715244 -3.680710 -17.747227 -11.739315 12.837803 56.222402 2.745730 7.524490 -9.274700 5.693671 -18.539968 9.682274 -18.685738 -3.031229 -7.165933 29.142395 -26.796351 -9.313659 -3.972711 2.194871 0.982880 0.235630 -0.063990 -0.056960 -10.657778 22.924506 12.882383 35.805684 10.269898 -11.336717 -0.041382 44.159335 -1.979086 1.483342 -0.706479 -0.721650 0.778320 0.821320 -0.112620 
